PathFileType	3	(X/Y/Z)	D:\Vicon Setup\UG\Test1\New Session\NewSession16.trc
DataRate	CameraRate	NumFrames	NumMarkers	Units	OrigDataRate	OrigDataStartFrame	OrigNumFrames
100.0	100.0	14	27	mm	100.0	505	357	
Frame#	Time	Sternum			LShoulder			RShoulder			LASIS			RASIS			RPSIS			LPSIS			RKneeLateral			RKneeMedial			RFibulaHead			RMidShank			RAnkleLateral			RAnkleMedial			RHeel			RMT5			RMT2			RToe			LKneeLateral			LKneeMedial			LFibulaHead			LMidShank			LAnkleLateral			LAnkleMedial			LHeel			LMT5			LMT2			LToe			
		X1	Y1	Z1	X2	Y2	Z2	X3	Y3	Z3	X4	Y4	Z4	X5	Y5	Z5	X6	Y6	Z6	X7	Y7	Z7	X8	Y8	Z8	X9	Y9	Z9	X10	Y10	Z10	X11	Y11	Z11	X12	Y12	Z12	X13	Y13	Z13	X14	Y14	Z14	X15	Y15	Z15	X16	Y16	Z16	X17	Y17	Z17	X18	Y18	Z18	X19	Y19	Z19	X20	Y20	Z20	X21	Y21	Z21	X22	Y22	Z22	X23	Y23	Z23	X24	Y24	Z24	X25	Y25	Z25	X26	Y26	Z26	X27	Y27	Z27	
505	5.04	-286.1127	1341.3278	-177.29985	-86.866875	1426.6262	-225.76057	-406.06369	1326.3423	-343.44482	-60.639481	968.47986	-128.70947	-320.19189	961.99762	-131.15234	-247.89531	959.93042	-301.48779	-121.85867	975.2442	-301.67142	-402.99878	582.30292	81.166611	-289.61249	598.75861	153.80931	-414.34729	515.11334	122.21983	-357.62457	397.45972	254.17712	-348.98376	243.66525	347.29544	-402.11435	189.64534	285.33698	-320.65045	186.1891	243.01781	-455.4935	111.29115	426.01657	-404.99954	159.66589	442.34781	-416.16751	144.58902	486.74561	8.2522659	490.33377	-281.11203	-114.53329	458.87915	-254.569	13.671558	444.60974	-326.06628	-67.761612	303.72144	-395.19363	-22.464863	187.88307	-579.17316	-104.23283	173.41997	-539.11707	-78.876884	241.08589	-630.25616	-5.5618401	43.48362	-582.12573	-75.202866	53.599709	-553.66718	-86.347542	34.58112	-539.5434
506	5.05	-287.79178	1337.7716	-156.7673	-89.54792	1422.208	-208.00534	-410.70718	1323.0361	-320.85175	-64.805252	964.71545	-109.62499	-324.30106	958.45172	-109.86009	-253.63481	957.56622	-280.76071	-127.59708	971.47351	-281.4444	-407.36874	574.65363	96.882736	-297.54321	592.57086	172.0144	-417.91003	505.55289	135.5417	-358.56302	382.77811	261.41403	-345.57166	223.83574	345.58987	-400.26703	173.10591	282.24435	-320.1398	173.13962	237.39781	-448.12796	85.814957	418.97949	-397.46356	133.075	437.03525	-406.50131	114.91541	480.69458	7.9445996	488.17719	-264.89581	-113.45593	455.31775	-238.92255	14.709457	443.57538	-310.86542	-65.324577	302.52444	-381.33051	-19.659412	189.14636	-567.35516	-100.93484	174.39926	-526.87848	-75.653107	246.73395	-613.5744	-5.8234539	44.513195	-580.6156	-74.543297	54.657932	-549.45337	-85.854347	33.984741	-536.48218
507	5.06	-289.34637	1333.2679	-136.2038	-91.880547	1417.0868	-189.50824	-414.86749	1319.1848	-298.66919	-69.622459	959.44476	-90.336632	-328.98761	953.9953	-88.391876	-259.86639	954.10907	-259.89648	-133.741	967.21753	-261.16187	-411.25897	565.52374	112.9594	-305.20679	585.01636	189.71518	-420.70572	495.47476	149.16991	-357.9028	366.92731	268.04315	-341.82364	204.02855	343.70184	-398.40384	156.34134	279.64523	-320.4425	160.57481	231.55942	-438.50095	58.97636	413.20044	-388.34366	107.29661	431.21405	-395.47919	86.293747	473.94791	8.6321688	485.68924	-248.09846	-112.31159	451.18658	-222.81142	15.400708	442.07745	-294.83713	-62.591232	301.06366	-366.73776	-15.312139	191.07516	-555.49768	-96.738564	174.72369	-514.20245	-72.042908	252.0878	-596.10046	-5.8166122	46.01577	-579.05139	-73.101662	54.908222	-544.50385	-84.645653	33.292454	-533.14606
508	5.07	-290.91107	1327.8385	-115.82049	-93.677887	1411.0984	-170.7234	-418.3826	1314.9047	-276.556	-75.469254	953.90607	-70.51799	-334.70731	948.84039	-66.911156	-266.44141	949.65424	-239.01245	-140.17502	962.36407	-241.08681	-414.59732	554.95081	128.23428	-309.81354	573.21039	206.04704	-422.54062	484.15195	162.53174	-357.07111	350.83044	274.34857	-338.43399	184.46748	342.20746	-397.34036	139.18651	278.41037	-322.19547	147.57118	227.37784	-427.95831	33.154705	407.36664	-378.55099	81.250557	426.53546	-382.32886	57.236034	468.23801	8.9257078	482.11237	-230.03397	-110.32331	446.24835	-205.6898	16.824516	439.66135	-277.48831	-59.83474	299.21066	-351.922	-12.9167	192.52225	-543.04602	-92.265823	174.95074	-501.04254	-68.767593	257.19223	-577.76019	-6.5891681	48.618599	-577.14014	-71.651558	55.490242	-539.07458	-83.500801	31.878151	-529.27533
509	5.08	-292.48404	1321.6962	-95.661644	-95.19175	1404.5311	-151.85559	-422.22742	1310.3171	-254.81808	-81.954536	947.43884	-50.864006	-341.12369	943.62604	-45.214771	-273.08878	944.07233	-217.82063	-146.93544	957.20386	-221.15288	-415.81058	541.83752	141.70367	-310.23746	556.09729	220.30017	-423.36871	470.80417	174.86852	-355.62924	333.38138	281.33914	-335.59607	163.96706	341.38797	-397.18115	121.26951	278.65649	-323.32126	132.22476	224.47264	-426.60626	23.589497	406.20377	-365.33896	57.829308	421.26474	-370.79333	40.329441	463.24573	10.231251	477.40289	-210.71538	-108.96203	440.99567	-187.73866	18.31415	436.40265	-258.7196	-56.299343	296.89847	-336.09225	-10.12133	194.97562	-530.15009	-88.677315	175.38115	-487.0787	-66.355072	262.09439	-558.62537	-6.7853212	52.215717	-574.45343	-70.716179	56.366703	-532.55792	-81.702202	30.500093	-525.59271
510	5.09	-294.11386	1314.9738	-75.645187	-96.345261	1396.8494	-133.10602	-425.90085	1305.317	-232.6843	-88.14222	940.27289	-31.478565	-346.45435	937.00287	-24.477713	-279.91528	938.08081	-197.04057	-153.86969	951.36932	-202.13483	-416.23184	527.25824	153.51819	-304.00177	536.58142	229.40056	-424.99359	455.09784	188.35641	-352.16476	315.17749	287.89182	-322.15933	150.49777	328.24252	-390.47687	112.14137	270.04868	-318.72095	109.18409	211.85619	-427.02118	33.252018	409.73886	-364.76904	58.004272	427.49176	-374.54184	42.811214	465.66269	10.499088	471.53363	-189.95952	-106.97672	433.52444	-167.63147	18.953917	431.98785	-238.40622	-53.581188	293.24927	-318.8515	-8.7711973	198.0376	-516.04382	-86.04081	176.13321	-472.22604	-65.281952	266.76617	-538.72137	-7.2484021	56.982597	-570.23218	-68.805473	56.301003	-525.6994	-80.519066	29.161482	-520.91644
511	5.1	-295.67624	1307.8792	-55.728821	-97.21122	1388.9751	-114.99792	-430.41418	1300.0087	-210.7392	-93.045341	932.73584	-13.44031	-350.40616	929.11627	-5.8403897	-287.73041	932.85297	-178.03395	-160.41396	944.66925	-184.9649	-417.1463	511.83301	166.371	-297.78735	516.57111	234.93227	-427.06284	440.97031	204.5544	-343.38568	298.3345	285.11777	-309.1503	134.10582	314.23001	-380.54419	97.383995	259.41824	-307.68549	82.156441	200.87175	-423.7019	33.469807	407.02701	-360.73996	58.719131	421.98746	-375.31979	43.611515	461.04849	11.176334	465.15765	-168.24144	-106.59637	425.17664	-147.47075	20.106522	427.09412	-217.14336	-51.891548	290.23242	-300.7179	-7.3047891	202.64925	-501.10663	-85.208679	178.03181	-456.38654	-65.248833	271.52399	-517.83295	-7.7703609	63.061394	-563.79889	-66.901161	57.71595	-516.74237	-78.825066	27.879873	-515.3205
512	5.11	-297.21423	1300.6387	-35.971062	-97.712662	1381.218	-97.655869	-434.8775	1294.9431	-188.93817	-98.07663	925.9234	4.0123487	-354.27979	921.50043	11.137645	-295.84302	927.64655	-159.2765	-166.35498	937.6026	-168.85379	-419.76886	504.12918	186.89577	-295.09143	502.53378	239.47566	-425.12579	432.98428	219.13043	-332.85413	285.88486	283.48425	-299.70731	122.19666	306.14465	-372.3287	86.658867	252.08372	-302.57971	61.430679	194.35403	-422.77158	32.949524	405.82266	-358.10916	57.976917	419.71942	-373.37381	43.84436	457.45813	10.343077	458.31342	-145.59393	-107.67875	416.02945	-124.80689	18.822134	420.96295	-193.85429	-52.620602	288.66602	-280.78967	-7.6979127	207.1041	-483.85782	-84.582146	180.1187	-439.63074	-66.441963	276.16998	-496.42184	-7.8134584	69.855598	-554.60474	-64.74646	59.995449	-506.30652	-76.954269	28.58499	-507.85571
513	5.12	-298.60303	1294.3148	-16.608999	-98.173241	1374.3248	-80.822227	-439.46393	1290.5964	-167.58612	-100.59131	919.16437	18.525673	-357.56897	913.96936	26.068663	-302.8255	921.82227	-146.64845	-171.20532	930.78162	-154.53188	-419.94199	501.90549	205.59395	-293.60318	498.83807	247.0759	-424.61679	427.01706	230.84251	-328.65036	279.51746	289.63483	-295.39761	118.70512	308.59439	-368.95697	86.335938	252.82574	-301.88333	59.344734	194.90736	-420.94577	33.426464	406.25317	-356.28152	56.869793	420.94617	-373.54288	42.449875	458.64383	8.2574644	451.02542	-121.67978	-107.75503	406.0882	-98.847496	17.555676	414.89014	-169.09612	-53.391262	285.15408	-260.55484	-8.0078716	212.06409	-465.92383	-84.325432	181.8705	-421.80759	-68.566162	280.27927	-475.55981	-8.0171251	75.373672	-542.3327	-63.916893	64.370949	-493.11948	-75.453384	29.965494	-498.29929
514	5.13	-299.57825	1289.501	2.0608499	-98.624908	1368.7452	-63.882187	-444.0491	1286.8716	-146.55457	-102.13072	912.85834	30.395466	-359.29721	907.60559	37.920609	-307.97986	915.86926	-136.83389	-173.82504	924.29108	-143.38887	-420.91772	500.29492	214.8161	-292.79648	498.36411	253.66762	-426.85889	429.29971	246.01176	-329.24411	281.31769	299.95206	-291.69299	118.15237	312.20856	-367.03668	88.998283	254.7816	-300.69809	61.27462	196.04573	-419.80933	34.540455	406.71893	-354.93109	56.262192	422.52997	-372.09128	42.680073	460.45511	5.8565512	443.88406	-96.794312	-110.66625	398.79987	-74.378448	15.46573	409.7482	-143.90021	-53.666473	282.89771	-240.43781	-9.3901672	216.59326	-447.88361	-84.807167	184.41512	-403.64362	-70.980118	284.01465	-455.47342	-7.5506606	81.323875	-527.22015	-62.495697	68.356361	-477.53607	-75.395317	33.406925	-483.36002
515	5.14	-300.84039	1286.7434	20.328785	-99.229736	1364.5365	-46.363682	-448.3183	1284.4227	-125.86963	-102.69254	907.65997	41.12817	-363.15356	904.85541	47.485146	-309.18808	911.65948	-128.05081	-172.25946	919.88458	-133.27583	-423.74664	508.68399	228.94933	-294.98386	507.32327	261.61304	-429.58383	435.3772	263.73358	-332.14899	285.04282	308.51498	-295.9184	122.55318	313.73785	-369.20578	90.782974	256.12704	-301.72882	63.770218	196.4326	-421.06314	34.629658	407.03842	-356.28351	56.613018	422.90973	-370.48715	42.856819	462.922	3.1305902	437.71017	-71.341469	-114.96638	393.2135	-49.949883	12.739595	405.57428	-118.09567	-59.104736	284.33185	-217.76405	-10.794545	220.86954	-427.37244	-86.641533	188.52661	-384.47797	-72.28833	288.76492	-436.28717	-7.1655235	86.595993	-507.12167	-62.489883	73.043457	-457.84341	-75.28067	38.519588	-463.59897
516	5.15	-302.46243	1284.9017	38.108135	-99.933403	1362.2927	-28.126163	-451.98309	1283.4165	-106.06796	-103.71468	902.53949	50.888855	-367.91122	904.02222	56.642708	-305.17267	910.51135	-120.31823	-170.32396	917.60992	-123.52019	-430.04666	516.63177	249.41212	-299.35226	517.73175	276.60135	-432.94412	440.32361	277.56668	-335.97372	288.8428	315.52435	-298.85196	124.15007	314.92328	-371.81418	91.799889	256.81552	-303.39191	65.714294	196.47859	-421.87555	33.577293	407.24966	-357.02951	56.622459	422.61249	-368.0239	42.232315	464.72247	-0.51124811	432.81921	-44.971428	-120.14291	389.80203	-25.857319	9.8011236	402.14209	-91.863029	-61.636757	283.57748	-195.70503	-12.90461	225.15605	-406.05133	-89.0467	193.92703	-364.19476	-73.217384	293.7309	-417.80701	-7.1127529	90.129883	-483.99146	-63.309818	77.104286	-435.25009	-75.891014	42.298878	-440.85699
517	5.16	-303.94833	1283.3347	54.538719	-100.78947	1361.5659	-9.7839346	-454.85547	1283.7716	-87.41288	-108.49014	899.56775	61.614838	-372.08575	906.44031	65.146347	-300.58823	910.87042	-111.75037	-169.23439	916.80969	-113.7921	-435.74512	521.7514	267.43478	-306.8067	525.47528	297.09293	-436.86499	444.26297	288.44925	-340.19696	291.21725	322.86292	-300.79617	125.02032	315.30331	-373.78305	92.324753	256.80954	-304.88763	66.199059	196.15535	-422.00888	32.818573	407.56021	-357.6348	56.745281	422.3378	-364.84088	39.690891	465.51956	-2.1808822	431.03891	-19.918966	-123.31952	387.7598	-3.1017931	7.2806807	399.53986	-65.772957	-64.605904	284.80457	-173.29683	-15.398244	229.19771	-384.05627	-92.191193	199.59447	-343.17368	-74.612305	298.32916	-399.66251	-7.3381844	92.606804	-458.00635	-66.210922	81.189278	-410.37946	-77.436584	45.444073	-415.45248
518	5.17	-305.21783	1281.4943	69.492691	-101.41773	1361.7645	7.3728094	-456.68674	1285.1158	-69.869545	-112.74207	898.45221	71.626839	-376.04608	909.06238	73.615845	-297.34464	911.40167	-102.27718	-169.98199	917.59058	-103.96651	-438.76541	523.32361	278.32404	-314.04285	528.06653	317.41785	-439.009	445.16104	297.2457	-340.909	289.97205	326.23627	-300.98535	124.60105	316.57727	-373.67438	92.553192	257.39932	-304.43549	66.453941	196.72408	-421.86273	32.810394	407.51761	-357.72714	57.002655	422.43619	-362.55307	37.411995	466.00836	-4.6428089	429.24847	5.8311796	-126.174	386.75681	18.998808	4.8852682	398.22986	-40.237408	-69.159966	287.71722	-149.52065	-18.999292	233.38895	-361.3822	-96.100388	205.45322	-321.39908	-76.903267	302.35278	-381.30957	-9.8906622	94.138351	-429.4855	-68.565094	84.903748	-383.95627	-80.079254	48.464035	-388.15491
